<svg width="835" height="443" viewBox="0 0 835 443" fill="none" xmlns="http://www.w3.org/2000/svg">
<g clip-path="url(#clip0_1_1169)">
<path d="M835 -2.50488V592.015H0V-2.50488H835Z" fill="#EDF1F2"/>
<path d="M828.454 55.11V618.785C828.454 623.394 824.863 627.135 820.438 627.135H720.989C716.564 627.135 712.973 623.394 712.973 618.785V55.11C712.973 50.5008 716.564 46.76 720.989 46.76H820.438C824.863 46.76 828.454 50.5008 828.454 55.11Z" fill="white"/>
<path d="M820.038 56.7817V66.8685H723.947V56.7817H820.038Z" fill="#E5E7E9"/>
<path d="M820.038 132.767V142.854H723.947V132.767H820.038Z" fill="#E5E7E9"/>
<path d="M789.948 82.5331C789.948 84.7709 788.145 86.5745 785.907 86.5745H733.001C730.764 86.5745 728.96 84.7709 728.96 82.5331C728.96 80.2953 730.764 78.4917 733.001 78.4917H785.907C788.145 78.4917 789.948 80.2953 789.948 82.5331Z" fill="#E5E7E9"/>
<path d="M766.036 98.7556C766.036 101.177 764.065 103.164 761.644 103.164H734.189C731.767 103.164 729.797 101.177 729.797 98.7556C729.797 96.3341 731.767 94.3635 734.189 94.3635H761.644C764.065 94.3635 766.036 96.3341 766.036 98.7556Z" fill="#E5E7E9"/>
<path d="M766.036 161.381C766.036 163.802 764.065 165.789 761.644 165.789H734.189C731.767 165.789 729.797 163.802 729.797 161.381C729.797 158.959 731.767 156.989 734.189 156.989H761.644C764.065 156.989 766.036 158.959 766.036 161.381Z" fill="#E5E7E9"/>
<path d="M109.512 52.7895V198.059C109.512 201.699 106.556 204.654 102.902 204.654H8.82183C5.16753 204.654 2.21207 201.699 2.21207 198.059V52.7895C2.21207 49.1498 5.16753 46.1943 8.82183 46.1943H102.902C106.556 46.1943 109.512 49.1498 109.512 52.7895Z" fill="white"/>
<path d="M109.512 52.7895V198.059C109.512 201.699 106.556 204.654 102.902 204.654H8.82183C5.16753 204.654 2.21207 201.699 2.21207 198.059V52.7895C2.21207 49.1498 5.16753 46.1943 8.82183 46.1943H102.902C106.556 46.1943 109.512 49.1498 109.512 52.7895Z" stroke="#EEF2F4" stroke-width="1.62478" stroke-linecap="round" stroke-linejoin="round"/>
<path d="M13.7648 65.1709H63.2944V71.7807H13.7648V65.1709Z" fill="#525C69" fill-opacity="0.15"/>
<path d="M13.7732 81.6775H81.4433V85.8122H13.7732V81.6775Z" fill="#525C69" fill-opacity="0.1"/>
<path d="M13.7685 90.7561H56.6883V94.8908H13.7685V90.7561Z" fill="#525C69" fill-opacity="0.1"/>
<g opacity="0.95">
<path d="M69.8921 128.834C69.8629 129.532 69.8484 130.188 69.8484 130.843C69.8484 131.483 69.8629 132.153 69.8921 132.837C69.9212 133.536 70.0085 134.22 70.1396 134.876C70.2706 135.531 70.4599 136.157 70.7074 136.754C70.9549 137.336 71.2897 137.846 71.7265 138.297C72.1487 138.734 72.6874 139.098 73.328 139.36C73.9977 139.607 74.7839 139.724 75.6865 139.724C76.6037 139.724 77.3899 139.607 78.0451 139.36C78.6857 139.098 79.2244 138.734 79.6466 138.297C80.0833 137.846 80.4182 137.336 80.6657 136.754C80.9132 136.157 81.1025 135.531 81.2335 134.876C81.3645 134.22 81.4519 133.536 81.481 132.837C81.5101 132.153 81.5247 131.483 81.5247 130.843C81.5247 130.188 81.5101 129.532 81.481 128.834C81.4519 128.135 81.3645 127.465 81.2335 126.795C81.1025 126.14 80.9132 125.514 80.6657 124.917C80.4182 124.32 80.0833 123.811 79.6466 123.359C79.2244 122.908 78.6711 122.559 78.016 122.297C77.3754 122.035 76.5892 121.904 75.6865 121.904C74.7839 121.904 73.9977 122.035 73.328 122.297C72.6874 122.559 72.1487 122.908 71.7265 123.359C71.2897 123.811 70.9549 124.32 70.7074 124.917C70.4599 125.514 70.2706 126.14 70.1396 126.795C70.0085 127.465 69.9212 128.135 69.8921 128.834ZM72.1196 133.041C72.0905 132.211 72.0759 131.469 72.0759 130.814C72.0759 130.391 72.0759 129.911 72.0759 129.401C72.0905 128.877 72.1341 128.353 72.1924 127.844C72.2797 127.319 72.3816 126.795 72.5127 126.3C72.6728 125.805 72.8767 125.383 73.1387 125.019C73.4153 124.641 73.7647 124.335 74.1724 124.102C74.5946 123.869 75.0896 123.753 75.6865 123.753C76.2834 123.753 76.7785 123.869 77.2007 124.102C77.6083 124.335 77.9432 124.641 78.2052 125.019C78.4964 125.383 78.7002 125.805 78.8313 126.3C78.9769 126.795 79.0933 127.319 79.1516 127.844C79.2389 128.353 79.2826 128.877 79.2826 129.401C79.2972 129.911 79.2972 130.391 79.2972 130.814C79.2972 131.469 79.2826 132.211 79.2244 133.041C79.1952 133.856 79.0642 134.614 78.8313 135.341C78.6129 136.055 78.2635 136.652 77.7685 137.147C77.2735 137.642 76.5746 137.889 75.6865 137.889C74.7984 137.889 74.0996 137.642 73.6046 137.147C73.1096 136.652 72.7456 136.055 72.5127 135.341C72.3089 134.614 72.1778 133.856 72.1196 133.041Z" fill="#333333"/>
</g>
<g opacity="0.95">
<path d="M56.1336 128.834C56.1045 129.532 56.0899 130.188 56.0899 130.843C56.0899 131.483 56.1045 132.153 56.1336 132.837C56.1627 133.536 56.2501 134.22 56.3811 134.876C56.5121 135.531 56.7014 136.157 56.9489 136.754C57.1964 137.336 57.5313 137.846 57.968 138.297C58.3903 138.734 58.9289 139.098 59.5695 139.36C60.2392 139.607 61.0254 139.724 61.9281 139.724C62.8453 139.724 63.6315 139.607 64.2866 139.36C64.9272 139.098 65.4659 138.734 65.8881 138.297C66.3249 137.846 66.6597 137.336 66.9072 136.754C67.1547 136.157 67.344 135.531 67.475 134.876C67.6061 134.22 67.6934 133.536 67.7225 132.837C67.7517 132.153 67.7662 131.483 67.7662 130.843C67.7662 130.188 67.7517 129.532 67.7225 128.834C67.6934 128.135 67.6061 127.465 67.475 126.795C67.344 126.14 67.1547 125.514 66.9072 124.917C66.6597 124.32 66.3249 123.811 65.8881 123.359C65.4659 122.908 64.9127 122.559 64.2575 122.297C63.6169 122.035 62.8307 121.904 61.9281 121.904C61.0254 121.904 60.2392 122.035 59.5695 122.297C58.9289 122.559 58.3903 122.908 57.968 123.359C57.5313 123.811 57.1964 124.32 56.9489 124.917C56.7014 125.514 56.5121 126.14 56.3811 126.795C56.2501 127.465 56.1627 128.135 56.1336 128.834ZM58.3611 133.041C58.332 132.211 58.3175 131.469 58.3175 130.814C58.3175 130.391 58.3175 129.911 58.3175 129.401C58.332 128.877 58.3757 128.353 58.4339 127.844C58.5213 127.319 58.6232 126.795 58.7542 126.3C58.9144 125.805 59.1182 125.383 59.3803 125.019C59.6569 124.641 60.0063 124.335 60.4139 124.102C60.8362 123.869 61.3312 123.753 61.9281 123.753C62.525 123.753 63.02 123.869 63.4422 124.102C63.8499 124.335 64.1847 124.641 64.4468 125.019C64.738 125.383 64.9418 125.805 65.0728 126.3C65.2184 126.795 65.3349 127.319 65.3931 127.844C65.4805 128.353 65.5241 128.877 65.5241 129.401C65.5387 129.911 65.5387 130.391 65.5387 130.814C65.5387 131.469 65.5241 132.211 65.4659 133.041C65.4368 133.856 65.3058 134.614 65.0728 135.341C64.8544 136.055 64.505 136.652 64.01 137.147C63.515 137.642 62.8162 137.889 61.9281 137.889C61.04 137.889 60.3412 137.642 59.8461 137.147C59.3511 136.652 58.9872 136.055 58.7542 135.341C58.5504 134.614 58.4194 133.856 58.3611 133.041Z" fill="#333333"/>
</g>
<g opacity="0.95">
<path d="M42.3753 128.834C42.3462 129.532 42.3316 130.188 42.3316 130.843C42.3316 131.483 42.3462 132.153 42.3753 132.837C42.4044 133.536 42.4918 134.22 42.6228 134.876C42.7538 135.531 42.9431 136.157 43.1906 136.754C43.4381 137.336 43.7729 137.846 44.2097 138.297C44.6319 138.734 45.1706 139.098 45.8112 139.36C46.4809 139.607 47.2671 139.724 48.1697 139.724C49.087 139.724 49.8731 139.607 50.5283 139.36C51.1689 139.098 51.7076 138.734 52.1298 138.297C52.5666 137.846 52.9014 137.336 53.1489 136.754C53.3964 136.157 53.5857 135.531 53.7167 134.876C53.8477 134.22 53.9351 133.536 53.9642 132.837C53.9933 132.153 54.0079 131.483 54.0079 130.843C54.0079 130.188 53.9933 129.532 53.9642 128.834C53.9351 128.135 53.8477 127.465 53.7167 126.795C53.5857 126.14 53.3964 125.514 53.1489 124.917C52.9014 124.32 52.5666 123.811 52.1298 123.359C51.7076 122.908 51.1543 122.559 50.4992 122.297C49.8586 122.035 49.0724 121.904 48.1697 121.904C47.2671 121.904 46.4809 122.035 45.8112 122.297C45.1706 122.559 44.6319 122.908 44.2097 123.359C43.7729 123.811 43.4381 124.32 43.1906 124.917C42.9431 125.514 42.7538 126.14 42.6228 126.795C42.4918 127.465 42.4044 128.135 42.3753 128.834ZM44.6028 133.041C44.5737 132.211 44.5591 131.469 44.5591 130.814C44.5591 130.391 44.5591 129.911 44.5591 129.401C44.5737 128.877 44.6174 128.353 44.6756 127.844C44.763 127.319 44.8649 126.795 44.9959 126.3C45.156 125.805 45.3599 125.383 45.6219 125.019C45.8985 124.641 46.248 124.335 46.6556 124.102C47.0778 123.869 47.5728 123.753 48.1697 123.753C48.7667 123.753 49.2617 123.869 49.6839 124.102C50.0915 124.335 50.4264 124.641 50.6884 125.019C50.9796 125.383 51.1835 125.805 51.3145 126.3C51.4601 126.795 51.5765 127.319 51.6348 127.844C51.7221 128.353 51.7658 128.877 51.7658 129.401C51.7804 129.911 51.7804 130.391 51.7804 130.814C51.7804 131.469 51.7658 132.211 51.7076 133.041C51.6785 133.856 51.5474 134.614 51.3145 135.341C51.0961 136.055 50.7467 136.652 50.2517 137.147C49.7567 137.642 49.0578 137.889 48.1697 137.889C47.2817 137.889 46.5828 137.642 46.0878 137.147C45.5928 136.652 45.2288 136.055 44.9959 135.341C44.7921 134.614 44.661 133.856 44.6028 133.041Z" fill="#333333"/>
</g>
<g opacity="0.95">
<path d="M28.6169 128.834C28.5878 129.532 28.5733 130.188 28.5733 130.843C28.5733 131.483 28.5878 132.153 28.6169 132.837C28.6461 133.536 28.7334 134.22 28.8645 134.876C28.9955 135.531 29.1847 136.157 29.4323 136.754C29.6798 137.336 30.0146 137.846 30.4514 138.297C30.8736 138.734 31.4123 139.098 32.0529 139.36C32.7226 139.607 33.5088 139.724 34.4114 139.724C35.3286 139.724 36.1148 139.607 36.77 139.36C37.4106 139.098 37.9492 138.734 38.3715 138.297C38.8082 137.846 39.1431 137.336 39.3906 136.754C39.6381 136.157 39.8273 135.531 39.9584 134.876C40.0894 134.22 40.1768 133.536 40.2059 132.837C40.235 132.153 40.2496 131.483 40.2496 130.843C40.2496 130.188 40.235 129.532 40.2059 128.834C40.1768 128.135 40.0894 127.465 39.9584 126.795C39.8273 126.14 39.6381 125.514 39.3906 124.917C39.1431 124.32 38.8082 123.811 38.3715 123.359C37.9492 122.908 37.396 122.559 36.7408 122.297C36.1003 122.035 35.3141 121.904 34.4114 121.904C33.5088 121.904 32.7226 122.035 32.0529 122.297C31.4123 122.559 30.8736 122.908 30.4514 123.359C30.0146 123.811 29.6798 124.32 29.4323 124.917C29.1847 125.514 28.9955 126.14 28.8645 126.795C28.7334 127.465 28.6461 128.135 28.6169 128.834ZM30.8445 133.041C30.8154 132.211 30.8008 131.469 30.8008 130.814C30.8008 130.391 30.8008 129.911 30.8008 129.401C30.8154 128.877 30.859 128.353 30.9173 127.844C31.0046 127.319 31.1065 126.795 31.2376 126.3C31.3977 125.805 31.6015 125.383 31.8636 125.019C32.1402 124.641 32.4896 124.335 32.8973 124.102C33.3195 123.869 33.8145 123.753 34.4114 123.753C35.0083 123.753 35.5033 123.869 35.9255 124.102C36.3332 124.335 36.6681 124.641 36.9301 125.019C37.2213 125.383 37.4251 125.805 37.5562 126.3C37.7017 126.795 37.8182 127.319 37.8764 127.844C37.9638 128.353 38.0075 128.877 38.0075 129.401C38.022 129.911 38.022 130.391 38.022 130.814C38.022 131.469 38.0075 132.211 37.9492 133.041C37.9201 133.856 37.7891 134.614 37.5562 135.341C37.3378 136.055 36.9884 136.652 36.4933 137.147C35.9983 137.642 35.2995 137.889 34.4114 137.889C33.5233 137.889 32.8245 137.642 32.3295 137.147C31.8345 136.652 31.4705 136.055 31.2376 135.341C31.0337 134.614 30.9027 133.856 30.8445 133.041Z" fill="#333333"/>
</g>
<g opacity="0.95">
<path d="M15.1304 125.64C14.8975 126.397 14.8101 127.227 14.8538 128.115H16.9648C16.9503 127.591 16.994 127.067 17.1104 126.557C17.2415 126.033 17.4453 125.553 17.7365 125.145C18.0131 124.737 18.3625 124.403 18.7993 124.155C19.236 123.893 19.7747 123.762 20.3862 123.762C20.8375 123.762 21.2743 123.835 21.6965 123.98C22.1042 124.126 22.4536 124.344 22.7593 124.621C23.0651 124.898 23.3126 125.247 23.5018 125.64C23.6765 126.019 23.7784 126.441 23.7784 126.921C23.7784 127.533 23.6765 128.071 23.4727 128.537C23.298 129.003 23.0068 129.425 22.6283 129.819C22.2643 130.226 21.813 130.619 21.2452 131.012C20.6919 131.391 20.0368 131.813 19.2943 132.279C18.6828 132.643 18.1004 133.021 17.5326 133.444C16.9648 133.851 16.4698 134.332 16.0185 134.87C15.5817 135.424 15.2032 136.064 14.912 136.807C14.6209 137.535 14.4461 138.408 14.3588 139.457H25.8313V137.593H16.8193C16.9212 137.054 17.125 136.574 17.4307 136.166C17.7656 135.729 18.1587 135.336 18.5955 134.972C19.0613 134.608 19.5563 134.274 20.1096 133.953C20.6483 133.633 21.2015 133.298 21.7402 132.963C22.2934 132.628 22.8175 132.264 23.3271 131.871C23.8367 131.493 24.288 131.071 24.6957 130.619C25.0887 130.139 25.3945 129.6 25.6274 129.003C25.8749 128.406 26.006 127.722 26.006 126.95C26.006 126.121 25.8458 125.393 25.5546 124.767C25.278 124.141 24.8849 123.631 24.3899 123.209C23.8949 122.787 23.3126 122.466 22.6283 122.248C21.9731 122.015 21.2597 121.898 20.5027 121.898C19.5855 121.898 18.7556 122.059 18.0277 122.364C17.2997 122.685 16.6882 123.121 16.1932 123.689C15.7128 124.228 15.3634 124.883 15.1304 125.64Z" fill="#333333"/>
</g>
<path d="M228.361 52.7895V198.059C228.361 201.699 225.405 204.654 221.751 204.654H127.671C124.016 204.654 121.061 201.699 121.061 198.059V52.7895C121.061 49.1498 124.016 46.1943 127.671 46.1943H221.751C225.405 46.1943 228.361 49.1498 228.361 52.7895Z" fill="white"/>
<path d="M228.361 52.7895V198.059C228.361 201.699 225.405 204.654 221.751 204.654H127.671C124.016 204.654 121.061 201.699 121.061 198.059V52.7895C121.061 49.1498 124.016 46.1943 127.671 46.1943H221.751C225.405 46.1943 228.361 49.1498 228.361 52.7895Z" stroke="#EEF2F4" stroke-width="1.62478" stroke-linecap="round" stroke-linejoin="round"/>
<path d="M132.614 65.1709H182.143V71.7807H132.614V65.1709Z" fill="#525C69" fill-opacity="0.15"/>
<path d="M132.622 81.6775H200.292V85.8122H132.622V81.6775Z" fill="#525C69" fill-opacity="0.1"/>
<path d="M132.617 90.7561H175.537V94.8908H132.617V90.7561Z" fill="#525C69" fill-opacity="0.1"/>
<g opacity="0.95">
<path d="M147.465 128.834C147.436 129.532 147.422 130.188 147.422 130.843C147.422 131.483 147.436 132.153 147.465 132.837C147.495 133.536 147.582 134.22 147.713 134.876C147.844 135.531 148.033 136.157 148.281 136.754C148.528 137.336 148.863 137.846 149.3 138.297C149.722 138.734 150.261 139.098 150.901 139.36C151.571 139.607 152.357 139.724 153.26 139.724C154.177 139.724 154.963 139.607 155.618 139.36C156.259 139.098 156.798 138.734 157.22 138.297C157.657 137.846 157.992 137.336 158.239 136.754C158.487 136.157 158.676 135.531 158.807 134.876C158.938 134.22 159.025 133.536 159.054 132.837C159.083 132.153 159.098 131.483 159.098 130.843C159.098 130.188 159.083 129.532 159.054 128.834C159.025 128.135 158.938 127.465 158.807 126.795C158.676 126.14 158.487 125.514 158.239 124.917C157.992 124.32 157.657 123.811 157.22 123.359C156.798 122.908 156.244 122.559 155.589 122.297C154.949 122.035 154.163 121.904 153.26 121.904C152.357 121.904 151.571 122.035 150.901 122.297C150.261 122.559 149.722 122.908 149.3 123.359C148.863 123.811 148.528 124.32 148.281 124.917C148.033 125.514 147.844 126.14 147.713 126.795C147.582 127.465 147.495 128.135 147.465 128.834ZM149.693 133.041C149.664 132.211 149.649 131.469 149.649 130.814C149.649 130.391 149.649 129.911 149.649 129.401C149.664 128.877 149.708 128.353 149.766 127.844C149.853 127.319 149.955 126.795 150.086 126.3C150.246 125.805 150.45 125.383 150.712 125.019C150.989 124.641 151.338 124.335 151.746 124.102C152.168 123.869 152.663 123.753 153.26 123.753C153.857 123.753 154.352 123.869 154.774 124.102C155.182 124.335 155.517 124.641 155.779 125.019C156.07 125.383 156.274 125.805 156.405 126.3C156.55 126.795 156.667 127.319 156.725 127.844C156.812 128.353 156.856 128.877 156.856 129.401C156.871 129.911 156.871 130.391 156.871 130.814C156.871 131.469 156.856 132.211 156.798 133.041C156.769 133.856 156.638 134.614 156.405 135.341C156.186 136.055 155.837 136.652 155.342 137.147C154.847 137.642 154.148 137.889 153.26 137.889C152.372 137.889 151.673 137.642 151.178 137.147C150.683 136.652 150.319 136.055 150.086 135.341C149.882 134.614 149.751 133.856 149.693 133.041Z" fill="#333333"/>
</g>
<g opacity="0.95">
<path d="M138.24 129.445C138.167 129.445 138.094 129.445 138.022 129.431V131.207C138.415 131.163 138.837 131.134 139.274 131.134C139.812 131.134 140.293 131.207 140.744 131.352C141.196 131.483 141.603 131.702 141.923 132.007C142.258 132.284 142.52 132.634 142.724 133.07C142.913 133.478 143.015 133.958 143.015 134.497C143.015 135.036 142.913 135.516 142.695 135.938C142.491 136.346 142.229 136.71 141.88 137.001C141.53 137.278 141.123 137.511 140.671 137.671C140.205 137.817 139.71 137.889 139.201 137.889C137.993 137.889 137.09 137.54 136.449 136.826C135.823 136.099 135.503 135.167 135.459 134.031H133.363C133.348 134.934 133.465 135.749 133.727 136.463C134.018 137.176 134.411 137.773 134.921 138.268C135.43 138.748 136.056 139.112 136.784 139.36C137.498 139.607 138.313 139.724 139.201 139.724C140.031 139.724 140.802 139.622 141.53 139.403C142.273 139.17 142.913 138.836 143.467 138.384C144.005 137.948 144.442 137.394 144.748 136.725C145.083 136.055 145.243 135.283 145.243 134.41C145.243 133.347 144.981 132.43 144.457 131.658C143.947 130.886 143.146 130.377 142.084 130.144V130.1C142.768 129.78 143.35 129.314 143.816 128.703C144.267 128.091 144.5 127.392 144.5 126.606C144.5 125.791 144.369 125.092 144.078 124.495C143.816 123.913 143.452 123.418 142.972 123.039C142.491 122.661 141.923 122.384 141.254 122.195C140.613 122.005 139.914 121.904 139.157 121.904C138.284 121.904 137.498 122.035 136.828 122.326C136.173 122.602 135.619 122.995 135.168 123.49C134.717 123.985 134.382 124.568 134.134 125.267C133.901 125.966 133.77 126.723 133.727 127.567H135.838C135.838 127.057 135.896 126.577 136.042 126.111C136.173 125.645 136.362 125.238 136.624 124.903C136.915 124.553 137.25 124.277 137.672 124.073C138.094 123.869 138.589 123.753 139.157 123.753C140.045 123.753 140.788 124 141.385 124.481C141.982 124.932 142.273 125.645 142.273 126.577C142.273 127.043 142.186 127.451 141.996 127.815C141.822 128.178 141.574 128.484 141.254 128.732C140.963 128.965 140.613 129.139 140.191 129.285C139.798 129.387 139.376 129.445 138.939 129.445H138.488C138.4 129.445 138.327 129.445 138.24 129.445Z" fill="#333333"/>
</g>
<path d="M178.775 176.071L166.56 185.17V193.003H216.089V170.32L204.311 180.482L198.924 173.654L189.01 185.17L178.775 176.071Z" fill="#DCEEA4"/>
<g opacity="0.8">
<path d="M216.089 170.316L204.311 180.478L198.924 173.65L189.01 185.166L178.775 176.066L166.56 185.166" stroke="#9DCF00" stroke-width="2.91179" stroke-linecap="round" stroke-linejoin="round"/>
</g>
<path d="M347.209 52.7895V198.059C347.209 201.699 344.254 204.654 340.599 204.654H246.519C242.865 204.654 239.909 201.699 239.909 198.059V52.7895C239.909 49.1498 242.865 46.1943 246.519 46.1943H340.599C344.254 46.1943 347.209 49.1498 347.209 52.7895Z" fill="white"/>
<path d="M347.209 52.7895V198.059C347.209 201.699 344.254 204.654 340.599 204.654H246.519C242.865 204.654 239.909 201.699 239.909 198.059V52.7895C239.909 49.1498 242.865 46.1943 246.519 46.1943H340.599C344.254 46.1943 347.209 49.1498 347.209 52.7895Z" stroke="#EEF2F4" stroke-width="1.62478" stroke-linecap="round" stroke-linejoin="round"/>
<path d="M251.462 65.1709H300.992V71.7807H251.462V65.1709Z" fill="#525C69" fill-opacity="0.15"/>
<path d="M251.471 81.6775H319.141V85.8122H251.471V81.6775Z" fill="#525C69" fill-opacity="0.1"/>
<g opacity="0.95">
<path d="M307.59 128.834C307.56 129.532 307.546 130.188 307.546 130.843C307.546 131.483 307.56 132.153 307.59 132.837C307.619 133.536 307.706 134.22 307.837 134.876C307.968 135.531 308.157 136.157 308.405 136.754C308.652 137.336 308.987 137.846 309.424 138.297C309.846 138.734 310.385 139.098 311.025 139.36C311.695 139.607 312.481 139.724 313.384 139.724C314.301 139.724 315.087 139.607 315.743 139.36C316.383 139.098 316.922 138.734 317.344 138.297C317.781 137.846 318.116 137.336 318.363 136.754C318.611 136.157 318.8 135.531 318.931 134.876C319.062 134.22 319.149 133.536 319.179 132.837C319.208 132.153 319.222 131.483 319.222 130.843C319.222 130.188 319.208 129.532 319.179 128.834C319.149 128.135 319.062 127.465 318.931 126.795C318.8 126.14 318.611 125.514 318.363 124.917C318.116 124.32 317.781 123.811 317.344 123.359C316.922 122.908 316.369 122.559 315.713 122.297C315.073 122.035 314.287 121.904 313.384 121.904C312.481 121.904 311.695 122.035 311.025 122.297C310.385 122.559 309.846 122.908 309.424 123.359C308.987 123.811 308.652 124.32 308.405 124.917C308.157 125.514 307.968 126.14 307.837 126.795C307.706 127.465 307.619 128.135 307.59 128.834ZM309.817 133.041C309.788 132.211 309.773 131.469 309.773 130.814C309.773 130.391 309.773 129.911 309.773 129.401C309.788 128.877 309.832 128.353 309.89 127.844C309.977 127.319 310.079 126.795 310.21 126.3C310.37 125.805 310.574 125.383 310.836 125.019C311.113 124.641 311.462 124.335 311.87 124.102C312.292 123.869 312.787 123.753 313.384 123.753C313.981 123.753 314.476 123.869 314.898 124.102C315.306 124.335 315.641 124.641 315.903 125.019C316.194 125.383 316.398 125.805 316.529 126.3C316.674 126.795 316.791 127.319 316.849 127.844C316.936 128.353 316.98 128.877 316.98 129.401C316.995 129.911 316.995 130.391 316.995 130.814C316.995 131.469 316.98 132.211 316.922 133.041C316.893 133.856 316.762 134.614 316.529 135.341C316.31 136.055 315.961 136.652 315.466 137.147C314.971 137.642 314.272 137.889 313.384 137.889C312.496 137.889 311.797 137.642 311.302 137.147C310.807 136.652 310.443 136.055 310.21 135.341C310.006 134.614 309.875 133.856 309.817 133.041Z" fill="#333333"/>
</g>
<g opacity="0.95">
<path d="M293.831 128.834C293.802 129.532 293.787 130.188 293.787 130.843C293.787 131.483 293.802 132.153 293.831 132.837C293.86 133.536 293.948 134.22 294.079 134.876C294.21 135.531 294.399 136.157 294.646 136.754C294.894 137.336 295.229 137.846 295.666 138.297C296.088 138.734 296.626 139.098 297.267 139.36C297.937 139.607 298.723 139.724 299.626 139.724C300.543 139.724 301.329 139.607 301.984 139.36C302.625 139.098 303.163 138.734 303.586 138.297C304.022 137.846 304.357 137.336 304.605 136.754C304.852 136.157 305.042 135.531 305.173 134.876C305.304 134.22 305.391 133.536 305.42 132.837C305.449 132.153 305.464 131.483 305.464 130.843C305.464 130.188 305.449 129.532 305.42 128.834C305.391 128.135 305.304 127.465 305.173 126.795C305.042 126.14 304.852 125.514 304.605 124.917C304.357 124.32 304.022 123.811 303.586 123.359C303.163 122.908 302.61 122.559 301.955 122.297C301.314 122.035 300.528 121.904 299.626 121.904C298.723 121.904 297.937 122.035 297.267 122.297C296.626 122.559 296.088 122.908 295.666 123.359C295.229 123.811 294.894 124.32 294.646 124.917C294.399 125.514 294.21 126.14 294.079 126.795C293.948 127.465 293.86 128.135 293.831 128.834ZM296.059 133.041C296.03 132.211 296.015 131.469 296.015 130.814C296.015 130.391 296.015 129.911 296.015 129.401C296.03 128.877 296.073 128.353 296.131 127.844C296.219 127.319 296.321 126.795 296.452 126.3C296.612 125.805 296.816 125.383 297.078 125.019C297.354 124.641 297.704 124.335 298.111 124.102C298.534 123.869 299.029 123.753 299.626 123.753C300.223 123.753 300.718 123.869 301.14 124.102C301.547 124.335 301.882 124.641 302.144 125.019C302.435 125.383 302.639 125.805 302.77 126.3C302.916 126.795 303.032 127.319 303.091 127.844C303.178 128.353 303.222 128.877 303.222 129.401C303.236 129.911 303.236 130.391 303.236 130.814C303.236 131.469 303.222 132.211 303.163 133.041C303.134 133.856 303.003 134.614 302.77 135.341C302.552 136.055 302.203 136.652 301.708 137.147C301.213 137.642 300.514 137.889 299.626 137.889C298.738 137.889 298.039 137.642 297.544 137.147C297.049 136.652 296.685 136.055 296.452 135.341C296.248 134.614 296.117 133.856 296.059 133.041Z" fill="#333333"/>
</g>
<g opacity="0.95">
<path d="M280.073 128.834C280.044 129.532 280.029 130.188 280.029 130.843C280.029 131.483 280.044 132.153 280.073 132.837C280.102 133.536 280.189 134.22 280.32 134.876C280.451 135.531 280.641 136.157 280.888 136.754C281.136 137.336 281.471 137.846 281.907 138.297C282.329 138.734 282.868 139.098 283.509 139.36C284.178 139.607 284.965 139.724 285.867 139.724C286.785 139.724 287.571 139.607 288.226 139.36C288.866 139.098 289.405 138.734 289.827 138.297C290.264 137.846 290.599 137.336 290.846 136.754C291.094 136.157 291.283 135.531 291.414 134.876C291.545 134.22 291.633 133.536 291.662 132.837C291.691 132.153 291.705 131.483 291.705 130.843C291.705 130.188 291.691 129.532 291.662 128.834C291.633 128.135 291.545 127.465 291.414 126.795C291.283 126.14 291.094 125.514 290.846 124.917C290.599 124.32 290.264 123.811 289.827 123.359C289.405 122.908 288.852 122.559 288.197 122.297C287.556 122.035 286.77 121.904 285.867 121.904C284.965 121.904 284.178 122.035 283.509 122.297C282.868 122.559 282.329 122.908 281.907 123.359C281.471 123.811 281.136 124.32 280.888 124.917C280.641 125.514 280.451 126.14 280.32 126.795C280.189 127.465 280.102 128.135 280.073 128.834ZM282.3 133.041C282.271 132.211 282.257 131.469 282.257 130.814C282.257 130.391 282.257 129.911 282.257 129.401C282.271 128.877 282.315 128.353 282.373 127.844C282.461 127.319 282.562 126.795 282.693 126.3C282.854 125.805 283.057 125.383 283.32 125.019C283.596 124.641 283.946 124.335 284.353 124.102C284.775 123.869 285.27 123.753 285.867 123.753C286.464 123.753 286.959 123.869 287.381 124.102C287.789 124.335 288.124 124.641 288.386 125.019C288.677 125.383 288.881 125.805 289.012 126.3C289.158 126.795 289.274 127.319 289.332 127.844C289.42 128.353 289.463 128.877 289.463 129.401C289.478 129.911 289.478 130.391 289.478 130.814C289.478 131.469 289.463 132.211 289.405 133.041C289.376 133.856 289.245 134.614 289.012 135.341C288.794 136.055 288.444 136.652 287.949 137.147C287.454 137.642 286.755 137.889 285.867 137.889C284.979 137.889 284.28 137.642 283.785 137.147C283.29 136.652 282.926 136.055 282.693 135.341C282.49 134.614 282.359 133.856 282.3 133.041Z" fill="#333333"/>
</g>
<g opacity="0.95">
<path d="M266.586 125.64C266.353 126.397 266.266 127.227 266.31 128.115H268.421C268.406 127.591 268.45 127.067 268.566 126.557C268.697 126.033 268.901 125.553 269.192 125.145C269.469 124.737 269.818 124.403 270.255 124.155C270.692 123.893 271.231 123.762 271.842 123.762C272.293 123.762 272.73 123.835 273.152 123.98C273.56 124.126 273.909 124.344 274.215 124.621C274.521 124.898 274.768 125.247 274.958 125.64C275.132 126.019 275.234 126.441 275.234 126.921C275.234 127.533 275.132 128.071 274.929 128.537C274.754 129.003 274.463 129.425 274.084 129.819C273.72 130.226 273.269 130.619 272.701 131.012C272.148 131.391 271.493 131.813 270.75 132.279C270.139 132.643 269.556 133.021 268.989 133.444C268.421 133.851 267.926 134.332 267.474 134.87C267.038 135.424 266.659 136.064 266.368 136.807C266.077 137.535 265.902 138.408 265.815 139.457H277.287V137.593H268.275C268.377 137.054 268.581 136.574 268.887 136.166C269.221 135.729 269.615 135.336 270.051 134.972C270.517 134.608 271.012 134.274 271.565 133.953C272.104 133.633 272.657 133.298 273.196 132.963C273.749 132.628 274.273 132.264 274.783 131.871C275.293 131.493 275.744 131.071 276.152 130.619C276.545 130.139 276.85 129.6 277.083 129.003C277.331 128.406 277.462 127.722 277.462 126.95C277.462 126.121 277.302 125.393 277.011 124.767C276.734 124.141 276.341 123.631 275.846 123.209C275.351 122.787 274.768 122.466 274.084 122.248C273.429 122.015 272.716 121.898 271.959 121.898C271.041 121.898 270.212 122.059 269.484 122.364C268.756 122.685 268.144 123.121 267.649 123.689C267.169 124.228 266.819 124.883 266.586 125.64Z" fill="#333333"/>
</g>
<g opacity="0.95">
<path d="M258.175 139.457H260.286V121.898H258.67C258.553 122.554 258.349 123.107 258.029 123.529C257.709 123.966 257.33 124.301 256.864 124.548C256.413 124.796 255.918 124.97 255.35 125.072C254.797 125.145 254.214 125.189 253.618 125.189V126.878H258.175V139.457Z" fill="#333333"/>
</g>
<path d="M298.43 172.429L312.873 184.237L320.167 175.982H334.333V193.307H283.988V179.228L298.43 172.429Z" fill="#FFE9C8"/>
<g opacity="0.8">
<path d="M335.055 174.808L320.889 174.662L313.507 182.844L299.196 170.892L284.681 177.53" stroke="#FFB546" stroke-width="2.91179" stroke-linecap="round" stroke-linejoin="round"/>
</g>
<path d="M466.058 52.7895V198.059C466.058 201.699 463.103 204.654 459.448 204.654H365.368C361.714 204.654 358.759 201.699 358.759 198.059V52.7895C358.759 49.1498 361.714 46.1943 365.368 46.1943H459.448C463.103 46.1943 466.058 49.1498 466.058 52.7895Z" fill="white"/>
<path d="M466.058 52.7895V198.059C466.058 201.699 463.103 204.654 459.448 204.654H365.368C361.714 204.654 358.759 201.699 358.759 198.059V52.7895C358.759 49.1498 361.714 46.1943 365.368 46.1943H459.448C463.103 46.1943 466.058 49.1498 466.058 52.7895Z" stroke="#EEF2F4" stroke-width="1.62478" stroke-linecap="round" stroke-linejoin="round"/>
<path d="M370.311 65.1704H419.841V71.7802H370.311V65.1704Z" fill="#525C69" fill-opacity="0.15"/>
<path d="M370.32 81.6775H437.99V85.8122H370.32V81.6775Z" fill="#525C69" fill-opacity="0.1"/>
<path d="M370.316 90.7563H413.235V94.8911H370.316V90.7563Z" fill="#525C69" fill-opacity="0.1"/>
<g opacity="0.95">
<path d="M412.681 128.834C412.652 129.533 412.637 130.188 412.637 130.843C412.637 131.484 412.652 132.153 412.681 132.838C412.71 133.536 412.797 134.221 412.928 134.876C413.059 135.531 413.248 136.157 413.496 136.754C413.743 137.336 414.078 137.846 414.515 138.297C414.937 138.734 415.476 139.098 416.117 139.36C416.786 139.608 417.572 139.724 418.475 139.724C419.392 139.724 420.179 139.608 420.834 139.36C421.474 139.098 422.013 138.734 422.435 138.297C422.872 137.846 423.207 137.336 423.454 136.754C423.702 136.157 423.891 135.531 424.022 134.876C424.153 134.221 424.24 133.536 424.27 132.838C424.299 132.153 424.313 131.484 424.313 130.843C424.313 130.188 424.299 129.533 424.27 128.834C424.24 128.135 424.153 127.465 424.022 126.796C423.891 126.14 423.702 125.514 423.454 124.918C423.207 124.321 422.872 123.811 422.435 123.36C422.013 122.908 421.46 122.559 420.805 122.297C420.164 122.035 419.378 121.904 418.475 121.904C417.572 121.904 416.786 122.035 416.117 122.297C415.476 122.559 414.937 122.908 414.515 123.36C414.078 123.811 413.743 124.321 413.496 124.918C413.248 125.514 413.059 126.14 412.928 126.796C412.797 127.465 412.71 128.135 412.681 128.834ZM414.908 133.041C414.879 132.212 414.864 131.469 414.864 130.814C414.864 130.392 414.864 129.911 414.864 129.402C414.879 128.878 414.923 128.353 414.981 127.844C415.068 127.32 415.17 126.796 415.301 126.301C415.461 125.806 415.665 125.383 415.927 125.019C416.204 124.641 416.553 124.335 416.961 124.102C417.383 123.869 417.878 123.753 418.475 123.753C419.072 123.753 419.567 123.869 419.989 124.102C420.397 124.335 420.732 124.641 420.994 125.019C421.285 125.383 421.489 125.806 421.62 126.301C421.765 126.796 421.882 127.32 421.94 127.844C422.027 128.353 422.071 128.878 422.071 129.402C422.086 129.911 422.086 130.392 422.086 130.814C422.086 131.469 422.071 132.212 422.013 133.041C421.984 133.857 421.853 134.614 421.62 135.342C421.401 136.055 421.052 136.652 420.557 137.147C420.062 137.642 419.363 137.89 418.475 137.89C417.587 137.89 416.888 137.642 416.393 137.147C415.898 136.652 415.534 136.055 415.301 135.342C415.097 134.614 414.966 133.857 414.908 133.041Z" fill="#333333"/>
</g>
<g opacity="0.95">
<path d="M398.921 128.834C398.892 129.533 398.877 130.188 398.877 130.843C398.877 131.484 398.892 132.153 398.921 132.838C398.95 133.536 399.037 134.221 399.168 134.876C399.299 135.531 399.489 136.157 399.736 136.754C399.984 137.336 400.319 137.846 400.755 138.297C401.178 138.734 401.716 139.098 402.357 139.36C403.027 139.608 403.813 139.724 404.715 139.724C405.633 139.724 406.419 139.608 407.074 139.36C407.714 139.098 408.253 138.734 408.675 138.297C409.112 137.846 409.447 137.336 409.695 136.754C409.942 136.157 410.131 135.531 410.262 134.876C410.393 134.221 410.481 133.536 410.51 132.838C410.539 132.153 410.553 131.484 410.553 130.843C410.553 130.188 410.539 129.533 410.51 128.834C410.481 128.135 410.393 127.465 410.262 126.796C410.131 126.14 409.942 125.514 409.695 124.918C409.447 124.321 409.112 123.811 408.675 123.36C408.253 122.908 407.7 122.559 407.045 122.297C406.404 122.035 405.618 121.904 404.715 121.904C403.813 121.904 403.027 122.035 402.357 122.297C401.716 122.559 401.178 122.908 400.755 123.36C400.319 123.811 399.984 124.321 399.736 124.918C399.489 125.514 399.299 126.14 399.168 126.796C399.037 127.465 398.95 128.135 398.921 128.834ZM401.148 133.041C401.119 132.212 401.105 131.469 401.105 130.814C401.105 130.392 401.105 129.911 401.105 129.402C401.119 128.878 401.163 128.353 401.221 127.844C401.309 127.32 401.41 126.796 401.541 126.301C401.702 125.806 401.905 125.383 402.168 125.019C402.444 124.641 402.794 124.335 403.201 124.102C403.623 123.869 404.118 123.753 404.715 123.753C405.312 123.753 405.807 123.869 406.229 124.102C406.637 124.335 406.972 124.641 407.234 125.019C407.525 125.383 407.729 125.806 407.86 126.301C408.006 126.796 408.122 127.32 408.18 127.844C408.268 128.353 408.311 128.878 408.311 129.402C408.326 129.911 408.326 130.392 408.326 130.814C408.326 131.469 408.311 132.212 408.253 133.041C408.224 133.857 408.093 134.614 407.86 135.342C407.642 136.055 407.292 136.652 406.797 137.147C406.302 137.642 405.603 137.89 404.715 137.89C403.827 137.89 403.128 137.642 402.633 137.147C402.138 136.652 401.774 136.055 401.541 135.342C401.338 134.614 401.207 133.857 401.148 133.041Z" fill="#333333"/>
</g>
<g opacity="0.95">
<path d="M388.625 124.062H395.715V122.198H387.038L385.407 131.312L387.213 131.414C387.635 130.919 388.101 130.511 388.625 130.22C389.178 129.9 389.79 129.754 390.488 129.754C391.085 129.754 391.624 129.841 392.09 130.045C392.585 130.249 393.007 130.526 393.356 130.89C393.706 131.239 393.968 131.661 394.157 132.156C394.346 132.637 394.448 133.161 394.448 133.729C394.448 134.428 394.346 135.039 394.157 135.563C393.953 136.073 393.677 136.509 393.327 136.859C393.007 137.208 392.614 137.47 392.148 137.645C391.697 137.82 391.231 137.893 390.736 137.893C390.212 137.893 389.717 137.82 389.28 137.674C388.843 137.514 388.465 137.281 388.13 137.004C387.824 136.713 387.562 136.364 387.373 135.985C387.183 135.592 387.082 135.17 387.038 134.733H384.941C384.956 135.519 385.116 136.233 385.407 136.859C385.713 137.485 386.106 138.009 386.63 138.446C387.14 138.853 387.722 139.174 388.377 139.407C389.062 139.625 389.775 139.727 390.532 139.727C391.566 139.727 392.454 139.567 393.211 139.261C393.983 138.926 394.623 138.489 395.147 137.951C395.657 137.398 396.035 136.786 396.283 136.087C396.545 135.374 396.676 134.646 396.676 133.903C396.676 132.899 396.53 132.025 396.225 131.283C395.933 130.526 395.526 129.9 395.016 129.405C394.507 128.895 393.91 128.517 393.211 128.269C392.512 128.022 391.784 127.891 391.012 127.891C390.416 127.891 389.804 127.992 389.193 128.211C388.61 128.415 388.115 128.72 387.737 129.157L387.693 129.099L388.625 124.062Z" fill="#333333"/>
</g>
<g opacity="0.95">
<path d="M374.867 124.062H381.957V122.198H373.28L371.649 131.312L373.454 131.414C373.877 130.919 374.343 130.511 374.867 130.22C375.42 129.9 376.031 129.754 376.73 129.754C377.327 129.754 377.866 129.841 378.332 130.045C378.827 130.249 379.249 130.526 379.598 130.89C379.948 131.239 380.21 131.661 380.399 132.156C380.588 132.637 380.69 133.161 380.69 133.729C380.69 134.428 380.588 135.039 380.399 135.563C380.195 136.073 379.919 136.509 379.569 136.859C379.249 137.208 378.856 137.47 378.39 137.645C377.939 137.82 377.473 137.893 376.978 137.893C376.454 137.893 375.959 137.82 375.522 137.674C375.085 137.514 374.706 137.281 374.372 137.004C374.066 136.713 373.804 136.364 373.615 135.985C373.425 135.592 373.323 135.17 373.28 134.733H371.183C371.198 135.519 371.358 136.233 371.649 136.859C371.955 137.485 372.348 138.009 372.872 138.446C373.382 138.853 373.964 139.174 374.619 139.407C375.303 139.625 376.017 139.727 376.774 139.727C377.808 139.727 378.696 139.567 379.453 139.261C380.224 138.926 380.865 138.489 381.389 137.951C381.899 137.398 382.277 136.786 382.525 136.087C382.787 135.374 382.918 134.646 382.918 133.903C382.918 132.899 382.772 132.025 382.466 131.283C382.175 130.526 381.768 129.9 381.258 129.405C380.748 128.895 380.152 128.517 379.453 128.269C378.754 128.022 378.026 127.891 377.254 127.891C376.657 127.891 376.046 127.992 375.434 128.211C374.852 128.415 374.357 128.72 373.979 129.157L373.935 129.099L374.867 124.062Z" fill="#333333"/>
</g>
<path d="M584.906 52.7895V198.059C584.906 201.699 581.951 204.654 578.297 204.654H484.217C480.562 204.654 477.607 201.699 477.607 198.059V52.7895C477.607 49.1498 480.562 46.1943 484.217 46.1943H578.297C581.951 46.1943 584.906 49.1498 584.906 52.7895Z" fill="white"/>
<path d="M584.906 52.7895V198.059C584.906 201.699 581.951 204.654 578.297 204.654H484.217C480.562 204.654 477.607 201.699 477.607 198.059V52.7895C477.607 49.1498 480.562 46.1943 484.217 46.1943H578.297C581.951 46.1943 584.906 49.1498 584.906 52.7895Z" stroke="#EEF2F4" stroke-width="1.62478" stroke-linecap="round" stroke-linejoin="round"/>
<path d="M489.16 65.1704H538.689V71.7802H489.16V65.1704Z" fill="#525C69" fill-opacity="0.15"/>
<path d="M489.168 81.6775H556.838V85.8122H489.168V81.6775Z" fill="#525C69" fill-opacity="0.1"/>
<path d="M489.164 90.7563H532.084V94.8911H489.164V90.7563Z" fill="#525C69" fill-opacity="0.1"/>
<g opacity="0.95">
<path d="M528.124 124.062H535.214V122.198H526.537L524.906 131.312L526.712 131.414C527.134 130.919 527.6 130.511 528.124 130.22C528.677 129.9 529.289 129.754 529.987 129.754C530.584 129.754 531.123 129.841 531.589 130.045C532.084 130.249 532.506 130.526 532.855 130.89C533.205 131.239 533.467 131.661 533.656 132.156C533.845 132.637 533.947 133.161 533.947 133.729C533.947 134.428 533.845 135.039 533.656 135.563C533.452 136.073 533.176 136.509 532.826 136.859C532.506 137.208 532.113 137.47 531.647 137.645C531.196 137.82 530.73 137.893 530.235 137.893C529.711 137.893 529.216 137.82 528.779 137.674C528.342 137.514 527.964 137.281 527.629 137.004C527.323 136.713 527.061 136.364 526.872 135.985C526.682 135.592 526.581 135.17 526.537 134.733H524.44C524.455 135.519 524.615 136.233 524.906 136.859C525.212 137.485 525.605 138.009 526.129 138.446C526.639 138.853 527.221 139.174 527.876 139.407C528.561 139.625 529.274 139.727 530.031 139.727C531.065 139.727 531.953 139.567 532.71 139.261C533.481 138.926 534.122 138.489 534.646 137.951C535.156 137.398 535.534 136.786 535.782 136.087C536.044 135.374 536.175 134.646 536.175 133.903C536.175 132.899 536.029 132.025 535.724 131.283C535.432 130.526 535.025 129.9 534.515 129.405C534.006 128.895 533.409 128.517 532.71 128.269C532.011 128.022 531.283 127.891 530.511 127.891C529.915 127.891 529.303 127.992 528.692 128.211C528.109 128.415 527.614 128.72 527.236 129.157L527.192 129.099L528.124 124.062Z" fill="#333333"/>
</g>
<g opacity="0.95">
<path d="M521.479 136.712H518.742V139.449H521.479V136.712Z" fill="#333333"/>
</g>
<g opacity="0.95">
<path d="M507.473 124.062H514.564V122.198H505.886L504.256 131.312L506.061 131.414C506.483 130.919 506.949 130.511 507.473 130.22C508.027 129.9 508.638 129.754 509.337 129.754C509.934 129.754 510.473 129.841 510.938 130.045C511.433 130.249 511.856 130.526 512.205 130.89C512.554 131.239 512.817 131.661 513.006 132.156C513.195 132.637 513.297 133.161 513.297 133.729C513.297 134.428 513.195 135.039 513.006 135.563C512.802 136.073 512.525 136.509 512.176 136.859C511.856 137.208 511.463 137.47 510.997 137.645C510.545 137.82 510.079 137.893 509.584 137.893C509.06 137.893 508.565 137.82 508.129 137.674C507.692 137.514 507.313 137.281 506.978 137.004C506.673 136.713 506.411 136.364 506.221 135.985C506.032 135.592 505.93 135.17 505.886 134.733H503.79C503.805 135.519 503.965 136.233 504.256 136.859C504.562 137.485 504.955 138.009 505.479 138.446C505.988 138.853 506.571 139.174 507.226 139.407C507.91 139.625 508.624 139.727 509.381 139.727C510.414 139.727 511.302 139.567 512.059 139.261C512.831 138.926 513.472 138.489 513.996 137.951C514.505 137.398 514.884 136.786 515.131 136.087C515.393 135.374 515.524 134.646 515.524 133.903C515.524 132.899 515.379 132.025 515.073 131.283C514.782 130.526 514.374 129.9 513.865 129.405C513.355 128.895 512.758 128.517 512.059 128.269C511.361 128.022 510.633 127.891 509.861 127.891C509.264 127.891 508.653 127.992 508.041 128.211C507.459 128.415 506.964 128.72 506.585 129.157L506.542 129.099L507.473 124.062Z" fill="#333333"/>
</g>
<g opacity="0.95">
<path d="M494.787 129.445C494.714 129.445 494.641 129.445 494.568 129.431V131.207C494.961 131.163 495.383 131.134 495.82 131.134C496.359 131.134 496.839 131.207 497.291 131.353C497.742 131.484 498.15 131.702 498.47 132.008C498.805 132.284 499.067 132.634 499.271 133.071C499.46 133.478 499.562 133.959 499.562 134.497C499.562 135.036 499.46 135.516 499.242 135.939C499.038 136.346 498.776 136.71 498.426 137.001C498.077 137.278 497.669 137.511 497.218 137.671C496.752 137.817 496.257 137.89 495.747 137.89C494.539 137.89 493.636 137.54 492.996 136.827C492.37 136.099 492.049 135.167 492.006 134.031H489.909C489.895 134.934 490.011 135.749 490.273 136.463C490.564 137.176 490.958 137.773 491.467 138.268C491.977 138.749 492.603 139.112 493.331 139.36C494.044 139.608 494.859 139.724 495.747 139.724C496.577 139.724 497.349 139.622 498.077 139.404C498.819 139.171 499.46 138.836 500.013 138.385C500.552 137.948 500.989 137.395 501.294 136.725C501.629 136.055 501.789 135.283 501.789 134.41C501.789 133.347 501.527 132.43 501.003 131.658C500.494 130.887 499.693 130.377 498.63 130.144V130.101C499.314 129.78 499.897 129.314 500.363 128.703C500.814 128.091 501.047 127.393 501.047 126.606C501.047 125.791 500.916 125.092 500.625 124.495C500.363 123.913 499.999 123.418 499.518 123.039C499.038 122.661 498.47 122.384 497.8 122.195C497.16 122.006 496.461 121.904 495.704 121.904C494.83 121.904 494.044 122.035 493.374 122.326C492.719 122.603 492.166 122.996 491.715 123.491C491.263 123.986 490.928 124.568 490.681 125.267C490.448 125.966 490.317 126.723 490.273 127.567H492.384C492.384 127.058 492.443 126.577 492.588 126.111C492.719 125.645 492.908 125.238 493.17 124.903C493.462 124.554 493.797 124.277 494.219 124.073C494.641 123.869 495.136 123.753 495.704 123.753C496.592 123.753 497.334 124 497.931 124.481C498.528 124.932 498.819 125.645 498.819 126.577C498.819 127.043 498.732 127.451 498.543 127.815C498.368 128.179 498.121 128.484 497.8 128.732C497.509 128.965 497.16 129.14 496.737 129.285C496.344 129.387 495.922 129.445 495.485 129.445H495.034C494.947 129.445 494.874 129.445 494.787 129.445Z" fill="#333333"/>
</g>
<path d="M703.756 52.7895V198.059C703.756 201.699 700.8 204.654 697.146 204.654H603.066C599.412 204.654 596.456 201.699 596.456 198.059V52.7895C596.456 49.1498 599.412 46.1943 603.066 46.1943H697.146C700.8 46.1943 703.756 49.1498 703.756 52.7895Z" fill="white"/>
<path d="M703.756 52.7895V198.059C703.756 201.699 700.8 204.654 697.146 204.654H603.066C599.412 204.654 596.456 201.699 596.456 198.059V52.7895C596.456 49.1498 599.412 46.1943 603.066 46.1943H697.146C700.8 46.1943 703.756 49.1498 703.756 52.7895Z" stroke="#EEF2F4" stroke-width="1.62478" stroke-linecap="round" stroke-linejoin="round"/>
<path d="M608.009 65.1704H657.538V71.7802H608.009V65.1704Z" fill="#525C69" fill-opacity="0.15"/>
<path d="M608.017 81.6775H675.687V85.8122H608.017V81.6775Z" fill="#525C69" fill-opacity="0.1"/>
<path d="M608.013 90.7563H650.933V94.8911H608.013V90.7563Z" fill="#525C69" fill-opacity="0.1"/>
<g opacity="0.95">
<path d="M640.723 121.779H637.505V139.453H639.733V124.749H639.791L645.309 139.453H647.318L652.836 124.749H652.894V139.453H655.122V121.779H651.904L646.299 136.629L640.723 121.779Z" fill="#333333"/>
</g>
<g opacity="0.95">
<path d="M622.86 128.834C622.831 129.533 622.817 130.188 622.817 130.843C622.817 131.484 622.831 132.153 622.86 132.838C622.889 133.536 622.977 134.221 623.108 134.876C623.239 135.531 623.428 136.157 623.676 136.754C623.923 137.336 624.258 137.846 624.695 138.297C625.117 138.734 625.656 139.098 626.296 139.36C626.966 139.608 627.752 139.724 628.655 139.724C629.572 139.724 630.358 139.608 631.013 139.36C631.654 139.098 632.193 138.734 632.615 138.297C633.052 137.846 633.386 137.336 633.634 136.754C633.881 136.157 634.071 135.531 634.202 134.876C634.333 134.221 634.42 133.536 634.449 132.838C634.478 132.153 634.493 131.484 634.493 130.843C634.493 130.188 634.478 129.533 634.449 128.834C634.42 128.135 634.333 127.465 634.202 126.796C634.071 126.14 633.881 125.514 633.634 124.918C633.386 124.321 633.052 123.811 632.615 123.36C632.193 122.908 631.639 122.559 630.984 122.297C630.344 122.035 629.557 121.904 628.655 121.904C627.752 121.904 626.966 122.035 626.296 122.297C625.656 122.559 625.117 122.908 624.695 123.36C624.258 123.811 623.923 124.321 623.676 124.918C623.428 125.514 623.239 126.14 623.108 126.796C622.977 127.465 622.889 128.135 622.86 128.834ZM625.088 133.041C625.059 132.212 625.044 131.469 625.044 130.814C625.044 130.392 625.044 129.911 625.044 129.402C625.059 128.878 625.102 128.353 625.161 127.844C625.248 127.32 625.35 126.796 625.481 126.301C625.641 125.806 625.845 125.383 626.107 125.019C626.384 124.641 626.733 124.335 627.141 124.102C627.563 123.869 628.058 123.753 628.655 123.753C629.252 123.753 629.747 123.869 630.169 124.102C630.577 124.335 630.911 124.641 631.173 125.019C631.465 125.383 631.668 125.806 631.8 126.301C631.945 126.796 632.062 127.32 632.12 127.844C632.207 128.353 632.251 128.878 632.251 129.402C632.265 129.911 632.265 130.392 632.265 130.814C632.265 131.469 632.251 132.212 632.193 133.041C632.164 133.857 632.032 134.614 631.8 135.342C631.581 136.055 631.232 136.652 630.737 137.147C630.242 137.642 629.543 137.89 628.655 137.89C627.767 137.89 627.068 137.642 626.573 137.147C626.078 136.652 625.714 136.055 625.481 135.342C625.277 134.614 625.146 133.857 625.088 133.041Z" fill="#333333"/>
</g>
<g opacity="0.95">
<path d="M614.72 139.456H616.831V121.898H615.215C615.099 122.553 614.895 123.106 614.575 123.529C614.254 123.965 613.876 124.3 613.41 124.548C612.959 124.795 612.464 124.97 611.896 125.072C611.343 125.145 610.76 125.188 610.163 125.188V126.877H614.72V139.456Z" fill="#333333"/>
</g>
<path d="M467.723 225.302V420.917C467.723 426.376 463.282 430.817 457.823 430.817H12.144C6.68435 430.817 2.24387 426.376 2.24387 420.917V225.302C2.24387 219.843 6.68435 215.402 12.144 215.402H457.823C463.282 215.402 467.723 219.843 467.723 225.302Z" fill="white"/>
<path d="M20.3974 235.207H152.447V241.817H20.3974V235.207Z" fill="#525C69" fill-opacity="0.15"/>
<path d="M20.3915 373.039H27.0013V379.649H20.3915V373.039Z" fill="white"/>
<path d="M20.3915 373.039H27.0013V379.649H20.3915V373.039Z" stroke="#DFE0E3" stroke-width="2.91179" stroke-linecap="round" stroke-linejoin="round"/>
<path d="M35.2548 376.344H442.964" stroke="#F1F4F6" stroke-width="0.727948" stroke-linecap="round" stroke-linejoin="round"/>
<path d="M20.3915 396.149H27.0012V402.758H20.3915V396.149Z" fill="white"/>
<path d="M20.3915 396.149H27.0012V402.758H20.3915V396.149Z" stroke="#DFE0E3" stroke-width="2.91179" stroke-linecap="round" stroke-linejoin="round"/>
<path d="M35.2548 399.454H442.964" stroke="#F1F4F6" stroke-width="0.727948" stroke-linecap="round" stroke-linejoin="round"/>
<path d="M20.3915 349.93H27.0013V356.54H20.3915V349.93Z" fill="white"/>
<path d="M20.3915 349.93H27.0013V356.54H20.3915V349.93Z" stroke="#DFE0E3" stroke-width="2.91179" stroke-linecap="round" stroke-linejoin="round"/>
<path d="M35.2548 353.235H442.964" stroke="#F1F4F6" stroke-width="0.727948" stroke-linecap="round" stroke-linejoin="round"/>
<path d="M20.3915 326.821H27.0013V333.43H20.3915V326.821Z" fill="white"/>
<path d="M20.3915 326.821H27.0013V333.43H20.3915V326.821Z" stroke="#DFE0E3" stroke-width="2.91179" stroke-linecap="round" stroke-linejoin="round"/>
<path d="M35.2547 330.125H442.964" stroke="#F1F4F6" stroke-width="0.727948" stroke-linecap="round" stroke-linejoin="round"/>
<path d="M20.3915 303.711H27.0013V310.321H20.3915V303.711Z" fill="white"/>
<path d="M20.3915 303.711H27.0013V310.321H20.3915V303.711Z" stroke="#DFE0E3" stroke-width="2.91179" stroke-linecap="round" stroke-linejoin="round"/>
<path d="M35.2547 307.016H442.964" stroke="#F1F4F6" stroke-width="0.727948" stroke-linecap="round" stroke-linejoin="round"/>
<path d="M20.3915 280.602H27.0013V287.211H20.3915V280.602Z" fill="white"/>
<path d="M20.3915 280.602H27.0013V287.211H20.3915V280.602Z" stroke="#DFE0E3" stroke-width="2.91179" stroke-linecap="round" stroke-linejoin="round"/>
<path d="M35.2548 283.906H442.964" stroke="#F1F4F6" stroke-width="0.727948" stroke-linecap="round" stroke-linejoin="round"/>
<path d="M45.6558 341.132L35.2462 376.918V399.339H443.8V361.907L433.157 345.325L420.272 337.71L413.226 322.351L406.456 337.71L395.653 343.913L388.679 359.855L378.081 369.74L369.636 353.653L356.577 376.35L344.071 365.78L331.332 363.145L324.533 349.27L316.685 363.145L306.785 365.78L296.448 319.133L286.155 334.42L275.513 330.737L265.088 312.727L254.373 334.42L244.065 346.388L233.743 337.71L223.435 340.608L212.705 312.13L202.383 343.913L192.046 319.133L181.52 349.27L171.096 334.42L160.701 352.153L150.16 322.38L139.619 319.133L129.297 349.27L118.684 334.42H108.274L97.9516 349.27L87.6584 330.285L76.5208 334.42L66.1985 330.285L56.1674 368.139L45.6558 341.132Z" fill="#D8F4FC"/>
<path d="M443.8 361.907L433.157 345.325L420.272 337.71L413.226 322.351L406.456 337.71L395.653 343.898L388.679 359.855L378.081 369.74L369.636 353.653L356.577 376.35L344.071 365.78L331.332 363.145L324.533 349.27L316.685 363.145L306.785 365.78L296.448 319.133L286.155 334.42L275.513 330.737L265.088 312.727L254.373 334.42L244.065 346.388L233.743 337.71L223.435 340.608L212.705 312.13L202.383 343.898L192.046 319.133L181.52 349.27L171.096 334.42L160.701 352.153L150.16 322.365L139.619 319.133L129.297 349.27L118.684 334.42H108.274L97.9516 349.27L87.6584 330.285L76.5208 334.42L66.1985 330.285L56.1674 368.139L45.6558 341.132L35.2462 376.918" stroke="#50CDF7" stroke-width="2.18384" stroke-linecap="round" stroke-linejoin="round"/>
<path d="M32.7769 374.443H37.727V379.393H32.7769V374.443Z" fill="white"/>
<path d="M32.7769 374.443H37.727V379.393H32.7769V374.443Z" stroke="#50CDF7" stroke-width="2.18384" stroke-linecap="round" stroke-linejoin="round"/>
<path d="M43.22 338.128H48.1701V343.078H43.22V338.128Z" fill="white"/>
<path d="M43.22 338.128H48.1701V343.078H43.22V338.128Z" stroke="#50CDF7" stroke-width="2.18384" stroke-linecap="round" stroke-linejoin="round"/>
<path d="M53.6646 366.189H58.6147V371.139H53.6646V366.189Z" fill="white"/>
<path d="M53.6646 366.189H58.6147V371.139H53.6646V366.189Z" stroke="#50CDF7" stroke-width="2.18384" stroke-linecap="round" stroke-linejoin="round"/>
<path d="M64.1076 328.224H69.0577V333.174H64.1076V328.224Z" fill="white"/>
<path d="M64.1076 328.224H69.0577V333.174H64.1076V328.224Z" stroke="#50CDF7" stroke-width="2.18384" stroke-linecap="round" stroke-linejoin="round"/>
<path d="M74.5509 331.938H79.5009V336.888H74.5509V331.938Z" fill="white"/>
<path d="M74.5509 331.938H79.5009V336.888H74.5509V331.938Z" stroke="#50CDF7" stroke-width="2.18384" stroke-linecap="round" stroke-linejoin="round"/>
<path d="M84.9954 328.224H89.9454V333.174H84.9954V328.224Z" fill="white"/>
<path d="M84.9954 328.224H89.9454V333.174H84.9954V328.224Z" stroke="#50CDF7" stroke-width="2.18384" stroke-linecap="round" stroke-linejoin="round"/>
<path d="M95.4387 346.382H100.389V351.332H95.4387V346.382Z" fill="white"/>
<path d="M95.4387 346.382H100.389V351.332H95.4387V346.382Z" stroke="#50CDF7" stroke-width="2.18384" stroke-linecap="round" stroke-linejoin="round"/>
<path d="M105.882 331.938H110.832V336.888H105.882V331.938Z" fill="white"/>
<path d="M105.882 331.938H110.832V336.888H105.882V331.938Z" stroke="#50CDF7" stroke-width="2.18384" stroke-linecap="round" stroke-linejoin="round"/>
<path d="M116.326 331.938H121.276V336.888H116.326V331.938Z" fill="white"/>
<path d="M116.326 331.938H121.276V336.888H116.326V331.938Z" stroke="#50CDF7" stroke-width="2.18384" stroke-linecap="round" stroke-linejoin="round"/>
<path d="M126.77 346.382H131.72V351.332H126.77V346.382Z" fill="white"/>
<path d="M126.77 346.382H131.72V351.332H126.77V346.382Z" stroke="#50CDF7" stroke-width="2.18384" stroke-linecap="round" stroke-linejoin="round"/>
<path d="M137.214 316.67H142.164V321.62H137.214V316.67Z" fill="white"/>
<path d="M137.214 316.67H142.164V321.62H137.214V316.67Z" stroke="#50CDF7" stroke-width="2.18384" stroke-linecap="round" stroke-linejoin="round"/>
<path d="M147.657 319.97H152.607V324.921H147.657V319.97Z" fill="white"/>
<path d="M147.657 319.97H152.607V324.921H147.657V319.97Z" stroke="#50CDF7" stroke-width="2.18384" stroke-linecap="round" stroke-linejoin="round"/>
<path d="M158.1 349.698H163.05V354.649H158.1V349.698Z" fill="white"/>
<path d="M158.1 349.698H163.05V354.649H158.1V349.698Z" stroke="#50CDF7" stroke-width="2.18384" stroke-linecap="round" stroke-linejoin="round"/>
<path d="M168.545 332.352H173.495V337.302H168.545V332.352Z" fill="white"/>
<path d="M168.545 332.352H173.495V337.302H168.545V332.352Z" stroke="#50CDF7" stroke-width="2.18384" stroke-linecap="round" stroke-linejoin="round"/>
<path d="M178.988 346.382H183.938V351.332H178.988V346.382Z" fill="white"/>
<path d="M178.988 346.382H183.938V351.332H178.988V346.382Z" stroke="#50CDF7" stroke-width="2.18384" stroke-linecap="round" stroke-linejoin="round"/>
<path d="M189.431 318.681H194.381V323.631H189.431V318.681Z" fill="white"/>
<path d="M189.431 318.681H194.381V323.631H189.431V318.681Z" stroke="#50CDF7" stroke-width="2.18384" stroke-linecap="round" stroke-linejoin="round"/>
<path d="M199.876 340.605H204.826V345.555H199.876V340.605Z" fill="white"/>
<path d="M199.876 340.605H204.826V345.555H199.876V340.605Z" stroke="#50CDF7" stroke-width="2.18384" stroke-linecap="round" stroke-linejoin="round"/>
<path d="M210.319 311.717H215.269V316.667H210.319V311.717Z" fill="white"/>
<path d="M210.319 311.717H215.269V316.667H210.319V311.717Z" stroke="#50CDF7" stroke-width="2.18384" stroke-linecap="round" stroke-linejoin="round"/>
<path d="M220.764 338.128H225.714V343.078H220.764V338.128Z" fill="white"/>
<path d="M220.764 338.128H225.714V343.078H220.764V338.128Z" stroke="#50CDF7" stroke-width="2.18384" stroke-linecap="round" stroke-linejoin="round"/>
<path d="M231.207 335.652H236.157V340.602H231.207V335.652Z" fill="white"/>
<path d="M231.207 335.652H236.157V340.602H231.207V335.652Z" stroke="#50CDF7" stroke-width="2.18384" stroke-linecap="round" stroke-linejoin="round"/>
<path d="M241.65 343.905H246.6V348.855H241.65V343.905Z" fill="white"/>
<path d="M241.65 343.905H246.6V348.855H241.65V343.905Z" stroke="#50CDF7" stroke-width="2.18384" stroke-linecap="round" stroke-linejoin="round"/>
<path d="M252.094 332.352H257.045V337.302H252.094V332.352Z" fill="white"/>
<path d="M252.094 332.352H257.045V337.302H252.094V332.352Z" stroke="#50CDF7" stroke-width="2.18384" stroke-linecap="round" stroke-linejoin="round"/>
<path d="M262.538 310.318H267.488V315.268H262.538V310.318Z" fill="white"/>
<path d="M262.538 310.318H267.488V315.268H262.538V310.318Z" stroke="#50CDF7" stroke-width="2.18384" stroke-linecap="round" stroke-linejoin="round"/>
<path d="M272.981 328.145H277.931V333.095H272.981V328.145Z" fill="white"/>
<path d="M272.981 328.145H277.931V333.095H272.981V328.145Z" stroke="#50CDF7" stroke-width="2.18384" stroke-linecap="round" stroke-linejoin="round"/>
<path d="M283.425 331.938H288.375V336.888H283.425V331.938Z" fill="white"/>
<path d="M283.425 331.938H288.375V336.888H283.425V331.938Z" stroke="#50CDF7" stroke-width="2.18384" stroke-linecap="round" stroke-linejoin="round"/>
<path d="M293.869 316.67H298.819V321.62H293.869V316.67Z" fill="white"/>
<path d="M293.869 316.67H298.819V321.62H293.869V316.67Z" stroke="#50CDF7" stroke-width="2.18384" stroke-linecap="round" stroke-linejoin="round"/>
<path d="M304.313 363.714H309.263V368.664H304.313V363.714Z" fill="white"/>
<path d="M304.313 363.714H309.263V368.664H304.313V363.714Z" stroke="#50CDF7" stroke-width="2.18384" stroke-linecap="round" stroke-linejoin="round"/>
<path d="M321.94 346.382H326.89V351.332H321.94V346.382Z" fill="white"/>
<path d="M321.94 346.382H326.89V351.332H321.94V346.382Z" stroke="#50CDF7" stroke-width="2.18384" stroke-linecap="round" stroke-linejoin="round"/>
<path d="M329.009 360.424H333.96V365.374H329.009V360.424Z" fill="white"/>
<path d="M329.009 360.424H333.96V365.374H329.009V360.424Z" stroke="#50CDF7" stroke-width="2.18384" stroke-linecap="round" stroke-linejoin="round"/>
<path d="M343.052 363.714H348.002V368.664H343.052V363.714Z" fill="white"/>
<path d="M343.052 363.714H348.002V368.664H343.052V363.714Z" stroke="#50CDF7" stroke-width="2.18384" stroke-linecap="round" stroke-linejoin="round"/>
<path d="M354.147 373.869H359.097V378.819H354.147V373.869Z" fill="white"/>
<path d="M354.147 373.869H359.097V378.819H354.147V373.869Z" stroke="#50CDF7" stroke-width="2.18384" stroke-linecap="round" stroke-linejoin="round"/>
<path d="M367.206 351.333H372.156V356.284H367.206V351.333Z" fill="white"/>
<path d="M367.206 351.333H372.156V356.284H367.206V351.333Z" stroke="#50CDF7" stroke-width="2.18384" stroke-linecap="round" stroke-linejoin="round"/>
<path d="M376.143 366.189H381.093V371.139H376.143V366.189Z" fill="white"/>
<path d="M376.143 366.189H381.093V371.139H376.143V366.189Z" stroke="#50CDF7" stroke-width="2.18384" stroke-linecap="round" stroke-linejoin="round"/>
<path d="M386.944 356.286H391.894V361.236H386.944V356.286Z" fill="white"/>
<path d="M386.944 356.286H391.894V361.236H386.944V356.286Z" stroke="#50CDF7" stroke-width="2.18384" stroke-linecap="round" stroke-linejoin="round"/>
<path d="M394.113 341.43H399.063V346.38H394.113V341.43Z" fill="white"/>
<path d="M394.113 341.43H399.063V346.38H394.113V341.43Z" stroke="#50CDF7" stroke-width="2.18384" stroke-linecap="round" stroke-linejoin="round"/>
<path d="M404.718 334.949H409.668V339.899H404.718V334.949Z" fill="white"/>
<path d="M404.718 334.949H409.668V339.899H404.718V334.949Z" stroke="#50CDF7" stroke-width="2.18384" stroke-linecap="round" stroke-linejoin="round"/>
<path d="M410.904 319.145H415.854V324.095H410.904V319.145Z" fill="white"/>
<path d="M410.904 319.145H415.854V324.095H410.904V319.145Z" stroke="#50CDF7" stroke-width="2.18384" stroke-linecap="round" stroke-linejoin="round"/>
<path d="M417.58 334.949H422.53V339.899H417.58V334.949Z" fill="white"/>
<path d="M417.58 334.949H422.53V339.899H417.58V334.949Z" stroke="#50CDF7" stroke-width="2.18384" stroke-linecap="round" stroke-linejoin="round"/>
<path d="M440.493 358.761H445.443V363.712H440.493V358.761Z" fill="white"/>
<path d="M440.493 358.761H445.443V363.712H440.493V358.761Z" stroke="#50CDF7" stroke-width="2.18384" stroke-linecap="round" stroke-linejoin="round"/>
<path d="M431.229 343.001H436.179V347.951H431.229V343.001Z" fill="white"/>
<path d="M431.229 343.001H436.179V347.951H431.229V343.001Z" stroke="#50CDF7" stroke-width="2.18384" stroke-linecap="round" stroke-linejoin="round"/>
<path d="M41.5719 411.003H56.4221V415.138H41.5719V411.003Z" fill="#525C69" fill-opacity="0.1"/>
<path d="M73.7603 411.003H88.6105V415.138H73.7603V411.003Z" fill="#525C69" fill-opacity="0.1"/>
<path d="M105.947 411.003H120.797V415.138H105.947V411.003Z" fill="#525C69" fill-opacity="0.1"/>
<path d="M138.136 411.003H152.986V415.138H138.136V411.003Z" fill="#525C69" fill-opacity="0.1"/>
<path d="M170.324 411.003H185.174V415.138H170.324V411.003Z" fill="#525C69" fill-opacity="0.1"/>
<path d="M202.512 411.003H217.363V415.138H202.512V411.003Z" fill="#525C69" fill-opacity="0.1"/>
<path d="M234.701 411.003H249.551V415.138H234.701V411.003Z" fill="#525C69" fill-opacity="0.1"/>
<path d="M331.265 411.003H346.115V415.138H331.265V411.003Z" fill="#525C69" fill-opacity="0.1"/>
<path d="M266.889 411.003H281.739V415.138H266.889V411.003Z" fill="#525C69" fill-opacity="0.1"/>
<path d="M363.453 411.003H378.303V415.138H363.453V411.003Z" fill="#525C69" fill-opacity="0.1"/>
<path d="M299.076 411.003H313.926V415.138H299.076V411.003Z" fill="#525C69" fill-opacity="0.1"/>
<path d="M397.291 411.003H412.141V415.138H397.291V411.003Z" fill="#525C69" fill-opacity="0.1"/>
<path d="M428.941 411.003H443.791V415.138H428.941V411.003Z" fill="#525C69" fill-opacity="0.1"/>
<path d="M635.903 284.965V361.254C635.903 363.383 634.172 365.115 632.042 365.115H551.892C549.762 365.115 548.031 363.383 548.031 361.254V284.965C548.031 282.835 549.762 281.104 551.892 281.104H632.042C634.172 281.104 635.903 282.835 635.903 284.965Z" fill="white"/>
<path d="M638.812 272.608L642.16 275.957" stroke="#B4B4B4" stroke-width="0.5678" stroke-linecap="round" stroke-linejoin="round"/>
<path d="M642.157 272.604L638.66 276.093" stroke="#B4B4B4" stroke-width="0.5678" stroke-linecap="round" stroke-linejoin="round"/>
<path d="M630.785 299.893H631.103V362.01H630.785V299.893Z" fill="#F1F4F6"/>
<path d="M590.549 299.893H590.867V362.01H590.549V299.893Z" fill="#EEF2F4"/>
<path d="M555.114 317.798H631.074" stroke="#F1F4F6" stroke-width="0.2839" stroke-linecap="round" stroke-linejoin="round"/>
<path d="M555.114 328.743H631.074" stroke="#F1F4F6" stroke-width="0.2839" stroke-linecap="round" stroke-linejoin="round"/>
<path d="M555.114 339.686H631.074" stroke="#F1F4F6" stroke-width="0.2839" stroke-linecap="round" stroke-linejoin="round"/>
<path d="M555.114 350.952H631.074" stroke="#F1F4F6" stroke-width="0.2839" stroke-linecap="round" stroke-linejoin="round"/>
<path d="M604.358 302.025H617.236V303.637H604.358V302.025Z" fill="#525C69" fill-opacity="0.15"/>
<path d="M631.135 307.207V307.525H555.174V307.207H631.135Z" fill="#F1F4F6"/>
<path d="M631.074 361.576V361.894H555.114V361.576H631.074Z" fill="#F1F4F6"/>
<path d="M555.114 302.025H575.066V303.637H555.114V302.025Z" fill="#525C69" fill-opacity="0.15"/>
<path d="M555.111 312.003H567.988V313.615H555.111V312.003Z" fill="#F1F4F6"/>
<path d="M598.89 312.003H622.704V313.615H598.89V312.003Z" fill="#F1F4F6"/>
<path d="M555.111 322.625H567.988V324.238H555.111V322.625Z" fill="#F1F4F6"/>
<path d="M598.89 322.625H622.704V324.238H598.89V322.625Z" fill="#F1F4F6"/>
<path d="M555.111 333.569H567.988V335.181H555.111V333.569Z" fill="#F1F4F6"/>
<path d="M598.89 333.569H622.704V335.181H598.89V333.569Z" fill="#F1F4F6"/>
<path d="M555.111 344.513H567.988V346.126H555.111V344.513Z" fill="#F1F4F6"/>
<path d="M598.89 344.513H622.704V346.126H598.89V344.513Z" fill="#F1F4F6"/>
<path d="M555.111 355.457H567.988V357.07H555.111V355.457Z" fill="#F1F4F6"/>
<path d="M598.89 355.457H622.704V357.07H598.89V355.457Z" fill="#F1F4F6"/>
<path d="M555.114 288.827H593.735V291.405H555.114V288.827Z" fill="#525C69" fill-opacity="0.15"/>
<path d="M227.579 452.638V620.183C227.579 625.642 223.138 630.083 217.679 630.083H12.1643C6.70473 630.083 2.26425 625.642 2.26425 620.183V452.638C2.26425 447.179 6.70473 442.738 12.1643 442.738H217.679C223.138 442.738 227.579 447.179 227.579 452.638Z" fill="white"/>
<path d="M227.579 452.638V620.183C227.579 625.642 223.138 630.083 217.679 630.083H12.1643C6.70473 630.083 2.26425 625.642 2.26425 620.183V452.638C2.26425 447.179 6.70473 442.738 12.1643 442.738H217.679C223.138 442.738 227.579 447.179 227.579 452.638Z" stroke="#EEF2F4" stroke-width="1.74708" stroke-linecap="round" stroke-linejoin="round"/>
<path d="M704.364 449.581V712.049C704.364 715.689 701.394 718.645 697.754 718.645H486.474C482.835 718.645 479.865 715.689 479.865 712.049V449.581C479.865 445.941 482.835 442.985 486.474 442.985H697.754C701.394 442.985 704.364 445.941 704.364 449.581Z" fill="white"/>
<path d="M704.364 449.581V712.049C704.364 715.689 701.394 718.645 697.754 718.645H486.474C482.835 718.645 479.865 715.689 479.865 712.049V449.581C479.865 445.941 482.835 442.985 486.474 442.985H697.754C701.394 442.985 704.364 445.941 704.364 449.581Z" stroke="#EEF2F4" stroke-width="1.62478" stroke-linecap="round" stroke-linejoin="round"/>
<path d="M465.495 449.049V648.289C465.495 651.943 462.54 654.898 458.9 654.898H247.446C243.791 654.898 240.836 651.943 240.836 648.289V449.049C240.836 445.41 243.791 442.454 247.446 442.454H458.9C462.54 442.454 465.495 445.41 465.495 449.049Z" fill="#F9F9F9"/>
<path d="M375.196 170.383V248.087C375.196 249.512 374.043 250.664 372.624 250.664H290.157C288.731 250.664 287.579 249.512 287.579 248.087V170.383C287.579 168.964 288.731 167.811 290.157 167.811H372.624C374.043 167.811 375.196 168.964 375.196 170.383Z" fill="white"/>
<path d="M293.706 175.856H321.71V178.434H293.706V175.856Z" fill="#525C69" fill-opacity="0.15"/>
<path d="M293.703 181.972H308.194V184.55H293.703V181.972Z" fill="#525C69" fill-opacity="0.15"/>
<path d="M318.66 228.324H356.422" stroke="#F1F4F6" stroke-width="0.335506" stroke-linecap="round" stroke-linejoin="round"/>
<path d="M307.756 222.531H311.617" stroke="#F1F4F6" stroke-width="0.2839" stroke-linecap="round" stroke-linejoin="round"/>
<path d="M307.756 217.059H311.617" stroke="#F1F4F6" stroke-width="0.2839" stroke-linecap="round" stroke-linejoin="round"/>
<path d="M307.756 211.587H311.617" stroke="#F1F4F6" stroke-width="0.2839" stroke-linecap="round" stroke-linejoin="round"/>
<path d="M307.756 206.114H311.617" stroke="#F1F4F6" stroke-width="0.2839" stroke-linecap="round" stroke-linejoin="round"/>
<path d="M307.756 200.642H311.617" stroke="#F1F4F6" stroke-width="0.2839" stroke-linecap="round" stroke-linejoin="round"/>
<path d="M307.756 195.17H311.617" stroke="#F1F4F6" stroke-width="0.2839" stroke-linecap="round" stroke-linejoin="round"/>
<path d="M296.926 227.037H300.787V228.968H296.926V227.037Z" fill="#525C69" fill-opacity="0.1"/>
<path d="M296.926 221.565H300.787V223.496H296.926V221.565Z" fill="#525C69" fill-opacity="0.1"/>
<path d="M296.926 216.093H300.787V218.024H296.926V216.093Z" fill="#525C69" fill-opacity="0.1"/>
<path d="M296.926 210.621H300.787V212.552H296.926V210.621Z" fill="#525C69" fill-opacity="0.1"/>
<path d="M296.926 205.149H300.787V207.079H296.926V205.149Z" fill="#525C69" fill-opacity="0.1"/>
<path d="M296.926 199.677H300.787V201.608H296.926V199.677Z" fill="#525C69" fill-opacity="0.1"/>
<path d="M296.926 194.205H300.787V196.136H296.926V194.205Z" fill="#525C69" fill-opacity="0.1"/>
<path d="M307.976 194.228H306.704V228.353H307.976V194.228Z" fill="#3CC7F6"/>
<path d="M311.518 224.808H310.246V228.351H311.518V224.808Z" fill="#3CC7F6"/>
<path d="M315.224 223.197H313.952V228.353H315.224V223.197Z" fill="#3CC7F6"/>
<path d="M318.847 220.301H317.576V228.352H318.847V220.301Z" fill="#3CC7F6"/>
<path d="M322.716 217.73H321.444V228.348H322.716V217.73Z" fill="#3CC7F6"/>
<path d="M326.177 220.301H324.905V228.352H326.177V220.301Z" fill="#3CC7F6"/>
<path d="M329.679 221.592H328.407V228.349H329.679V221.592Z" fill="#3CC7F6"/>
<path d="M332.896 222.877H331.624V228.351H332.896V222.877Z" fill="#3CC7F6"/>
<path d="M335.991 224.488H334.719V228.349H335.991V224.488Z" fill="#3CC7F6"/>
<path d="M339.167 222.877H337.895V228.351H339.167V222.877Z" fill="#3CC7F6"/>
<path d="M342.425 220.946H341.153V228.35H342.425V220.946Z" fill="#3CC7F6"/>
<path d="M345.682 218.696H344.41V228.348H345.682V218.696Z" fill="#3CC7F6"/>
<path d="M348.94 216.439H347.668V228.352H348.94V216.439Z" fill="#3CC7F6"/>
<path d="M352.238 214.508H350.966V228.351H352.238V214.508Z" fill="#3CC7F6"/>
<path d="M355.496 212.897H354.224V228.353H355.496V212.897Z" fill="#3CC7F6"/>
<path d="M358.794 210.966H357.522V228.352H358.794V210.966Z" fill="#3CC7F6"/>
<path d="M362.011 209.681H360.739V228.35H362.011V209.681Z" fill="#3CC7F6"/>
<path d="M365.269 207.75H363.997V228.35H365.269V207.75Z" fill="#3CC7F6"/>
<path d="M368.486 206.139H367.214V228.351H368.486V206.139Z" fill="#3CC7F6"/>
<path d="M302.603 231.163H347.027V232.776H302.603V231.163Z" fill="#525C69" fill-opacity="0.1"/>
<path d="M312.261 234.704H337.369V236.317H312.261V234.704Z" fill="#525C69" fill-opacity="0.1"/>
<path d="M835.992 -2.56982V36.5645H-0.0139771V-2.56982H835.992Z" fill="white"/>
<path d="M119.254 21.3775L122.725 19.5666L126.196 21.3775C126.246 21.3775 126.296 21.4278 126.347 21.3775C126.498 21.3775 126.598 21.2266 126.598 21.0756L125.944 17.2025L128.711 14.4862C128.761 14.4359 128.811 14.3856 128.811 14.3353C128.811 14.1844 128.711 14.0335 128.56 13.9832L124.687 13.4299L122.976 9.95907C122.976 9.90877 122.926 9.85847 122.876 9.80817C122.725 9.75787 122.524 9.80817 122.473 9.95907L120.763 13.4299L116.89 13.9832C116.84 14.0335 116.739 14.0335 116.739 14.0838C116.588 14.1844 116.588 14.3856 116.739 14.4862L119.506 17.2025L118.852 21.0756C118.852 21.1259 118.852 21.1762 118.902 21.2266C118.952 21.3775 119.154 21.4278 119.254 21.3775ZM127.604 14.5868L125.19 16.9509L125.743 20.3211L122.725 18.7618L119.707 20.3211L120.26 16.9509L117.846 14.5868L121.216 14.0838L122.725 11.0154L124.234 14.0838L127.604 14.5868Z" fill="#525C69"/>
<path d="M209.724 16.0837C209.724 20.0072 206.555 23.2265 202.631 23.2265H149.916C145.992 23.2265 142.823 20.0072 142.823 16.0837C142.823 12.1602 145.992 8.94092 149.916 8.94092H202.631C206.555 8.94092 209.724 12.1602 209.724 16.0837Z" fill="#EEEEEE"/>
<path d="M209.724 16.0837C209.724 20.0072 206.555 23.2265 202.631 23.2265H149.916C145.992 23.2265 142.823 20.0072 142.823 16.0837C142.823 12.1602 145.992 8.94092 149.916 8.94092H202.631C206.555 8.94092 209.724 12.1602 209.724 16.0837Z" stroke="#EBEBEB" stroke-width="5.03012" stroke-linecap="round" stroke-linejoin="round"/>
<path d="M735.677 15.314V19.155C735.677 19.6727 735.259 20.1069 734.742 20.1069H694.361C693.843 20.1069 693.426 19.6727 693.426 19.155V15.314C693.426 14.7963 693.843 14.3621 694.361 14.3621H734.742C735.259 14.3621 735.677 14.7963 735.677 15.314Z" fill="#EAF5F5"/>
<path d="M735.677 15.314V19.155C735.677 19.6727 735.259 20.1069 734.742 20.1069H694.361C693.843 20.1069 693.426 19.6727 693.426 19.155V15.314C693.426 14.7963 693.843 14.3621 694.361 14.3621H734.742C735.259 14.3621 735.677 14.7963 735.677 15.314Z" stroke="#EBEBEB" stroke-width="0.501" stroke-linecap="round" stroke-linejoin="round"/>
<path d="M718.459 17.4014C718.459 17.702 718.208 17.9525 717.908 17.9525H697.15C696.849 17.9525 696.599 17.702 696.599 17.4014C696.599 17.1008 696.849 16.8503 697.15 16.8503H717.908C718.208 16.8503 718.459 17.1008 718.459 17.4014Z" fill="#E5E7E9"/>
<path d="M729.732 17.3679C729.732 17.6852 729.481 17.9524 729.147 17.9524H720.964C720.647 17.9524 720.38 17.6852 720.38 17.3679C720.38 17.0339 720.647 16.7834 720.964 16.7834H729.147C729.481 16.7834 729.732 17.0339 729.732 17.3679Z" fill="#E5E7E9"/>
<path d="M808.101 10.1272V25.8212C808.101 27.3805 806.843 28.638 805.284 28.638H789.59C788.03 28.638 786.773 27.3805 786.773 25.8212V10.1272C786.773 8.56783 788.03 7.3103 789.59 7.3103H805.284C806.843 7.3103 808.101 8.56783 808.101 10.1272Z" stroke="#919D9C" stroke-width="1.50904" stroke-linecap="round" stroke-linejoin="round"/>
<path d="M801.901 19.2698C802.807 19.2698 803.511 18.5656 803.511 17.7105C803.511 16.8553 802.807 16.1511 801.901 16.1511C801.046 16.1511 800.342 16.8553 800.342 17.7105C800.342 18.5656 801.046 19.2698 801.901 19.2698ZM798.732 17.7105C798.732 18.5656 798.028 19.2698 797.173 19.2698C796.318 19.2698 795.614 18.5656 795.614 17.7105C795.614 16.8553 796.318 16.1511 797.173 16.1511C798.028 16.1511 798.732 16.8553 798.732 17.7105ZM794.004 17.7105C794.004 18.5656 793.3 19.2698 792.445 19.2698C791.539 19.2698 790.835 18.5656 790.835 17.7105C790.835 16.8553 791.539 16.1511 792.445 16.1511C793.3 16.1511 794.004 16.8553 794.004 17.7105Z" fill="#525C69"/>
<path d="M75.69 18.2854L78.9662 13.5199C79.3291 12.9516 79.5927 12.4723 79.7639 12.0751H79.8358C79.7742 12.8283 79.7434 13.7937 79.7434 14.9714V18.2854H75.69ZM83.588 18.2854H81.8112V9.69238H79.7434L73.7146 18.412V20.045H79.7434V22.9242H81.8112V20.045H83.588V18.2854Z" fill="#2EC6F7"/>
<path d="M73.0299 21.055H66.7649V20.966L69.0586 18.7441C70.0857 17.7753 70.8217 17.0084 71.2668 16.4401C71.7084 15.8684 72.0371 15.3172 72.2493 14.7831C72.4616 14.2456 72.5711 13.6808 72.5711 13.0851C72.5711 12.0032 72.198 11.1405 71.4585 10.5003C70.719 9.85671 69.7365 9.53833 68.5075 9.53833C67.7269 9.53833 66.9874 9.66842 66.2959 9.92518C65.6043 10.1854 64.8922 10.6236 64.1562 11.2432L65.3031 12.6434C65.9227 12.1539 66.4705 11.8184 66.9429 11.6335C67.4154 11.4452 67.9015 11.3528 68.4082 11.3528C69.0415 11.3528 69.5345 11.524 69.894 11.8663C70.25 12.2087 70.4315 12.6777 70.4315 13.2734C70.4315 13.7082 70.3561 14.1155 70.2055 14.4921C70.0549 14.8721 69.8152 15.2761 69.4866 15.7075C69.1579 16.1388 68.4938 16.868 67.4872 17.8951L64.0843 21.3186V22.9242H73.0299V21.055Z" fill="#2EC6F7"/>
<path d="M49.4385 22.9241H51.8384L54.2931 19.1856L56.758 22.9241H59.1579L55.6316 17.8231L58.9867 12.9412H56.5868L54.2931 16.4331L52.0199 12.9412H49.5994L52.9476 17.8231L49.4385 22.9241Z" fill="#DFE0E2"/>
<path d="M46.2205 11.1473C46.4293 11.3562 46.7237 11.4589 47.1106 11.4589C47.4837 11.4589 47.7747 11.3562 47.9802 11.1473C48.189 10.9419 48.2917 10.6578 48.2917 10.2949C48.2917 9.91829 48.189 9.62387 47.9802 9.42189C47.7747 9.21648 47.4837 9.11377 47.1106 9.11377C46.7237 9.11377 46.4293 9.21648 46.2205 9.42189C46.0151 9.62387 45.9089 9.91829 45.9089 10.2949C45.9089 10.6578 46.0151 10.9419 46.2205 11.1473ZM48.1582 12.9412H46.0356V22.9242H48.1582V12.9412Z" fill="#DFE0E2"/>
<path d="M41.8726 13.2836C41.3386 13.6328 40.9072 14.1052 40.5785 14.7009H40.469L40.1883 12.9412H38.5279V22.9241H40.6504V17.7067C40.6504 16.8235 40.914 16.1045 41.4378 15.5499C41.9651 14.9953 42.6532 14.718 43.5022 14.718C43.8274 14.718 44.139 14.7557 44.4402 14.8276L44.6491 12.8488C44.3718 12.7906 44.0192 12.7598 43.5912 12.7598C42.9784 12.7598 42.4033 12.9344 41.8726 13.2836Z" fill="#DFE0E2"/>
<path d="M34.4368 21.0242C34.18 20.7811 34.0533 20.4046 34.0533 19.891V14.547H36.8949V12.9413H34.0533V10.7195H32.7421L32.0198 12.8318L30.558 13.6089V14.547H31.9205V19.9287C31.9205 22.0444 32.927 23.1057 34.9366 23.1057C35.3337 23.1057 35.7172 23.0715 36.0869 22.9996C36.4566 22.9311 36.7613 22.8455 36.9941 22.7428V21.1475C36.4772 21.3084 35.9602 21.3905 35.4433 21.3905C35.0256 21.3905 34.6901 21.2673 34.4368 21.0242Z" fill="#DFE0E2"/>
<path d="M27.2166 11.1473C27.4254 11.3562 27.7199 11.4589 28.1067 11.4589C28.4799 11.4589 28.7674 11.3562 28.9763 11.1473C29.1851 10.9419 29.2878 10.6578 29.2878 10.2949C29.2878 9.91829 29.1851 9.62387 28.9763 9.42189C28.7674 9.21648 28.4799 9.11377 28.1067 9.11377C27.7199 9.11377 27.4254 9.21648 27.2166 9.42189C27.0078 9.62387 26.9051 9.91829 26.9051 10.2949C26.9051 10.6578 27.0078 10.9419 27.2166 11.1473ZM29.1509 12.9412H27.0317V22.9242H29.1509V12.9412Z" fill="#DFE0E2"/>
<path d="M19.8561 16.9296C20.8147 16.9296 21.5267 17.0974 21.9958 17.426C22.4648 17.7581 22.701 18.2648 22.701 18.9529C22.701 19.6992 22.4682 20.2436 22.0095 20.5893C21.5507 20.9385 20.8694 21.1097 19.9656 21.1097H17.6719V16.9296H19.8561ZM17.6719 11.5342H19.5411C20.5168 11.5342 21.2255 11.6711 21.674 11.9484C22.1224 12.2257 22.3484 12.6742 22.3484 13.2938C22.3484 13.9785 22.1395 14.4647 21.7253 14.7523C21.3111 15.0364 20.6503 15.1802 19.7465 15.1802H17.6719V11.5342ZM15.5151 22.9242H20.2806C21.7561 22.9242 22.9064 22.5887 23.7349 21.9176C24.56 21.2466 24.9742 20.3189 24.9742 19.1343C24.9742 18.2545 24.7551 17.5595 24.3203 17.0426C23.8855 16.5291 23.2043 16.1833 22.2765 16.0087V15.9197C23.0228 15.7862 23.5945 15.4643 23.9917 14.9542C24.3888 14.4407 24.5874 13.8005 24.5874 13.0302C24.5874 11.8868 24.1834 11.0515 23.372 10.5208C22.5641 9.99017 21.2494 9.72656 19.4316 9.72656H15.5151V22.9242Z" fill="#DFE0E2"/>
</g>
<defs>
<clipPath id="clip0_1_1169">
<rect width="835" height="443" rx="20" fill="white"/>
</clipPath>
</defs>
</svg>
